<svg width="24" height="24" viewBox="0 0 24 24" fill="none" xmlns="http://www.w3.org/2000/svg">
<g clip-path="url(#clip0_9_405)">
<path d="M12 14.9995C13.6569 14.9995 15 13.6564 15 11.9995C15 10.3427 13.6569 8.99951 12 8.99951C10.3432 8.99951 9 10.3427 9 11.9995C9 13.6564 10.3432 14.9995 12 14.9995Z" stroke="white" stroke-width="1.5" stroke-miterlimit="1.5" stroke-linecap="round" stroke-linejoin="round"/>
<path d="M13 9C13 9 14 7 14 5C14 3 12 1 12 1C12 1 10 3 10 5C10 7 11 9 11 9" stroke="white" stroke-width="1.5" stroke-miterlimit="1.5" stroke-linecap="round" stroke-linejoin="round"/>
<path d="M9 11C9 11 7 10 5 10C3 10 1 12 1 12C1 12 3 14 5 14C7 14 9 13 9 13" stroke="white" stroke-width="1.5" stroke-miterlimit="1.5" stroke-linecap="round" stroke-linejoin="round"/>
<path d="M13 15C13 15 14 17 14 19C14 21 12 23 12 23C12 23 10 21 10 19C10 17 11 15 11 15" stroke="white" stroke-width="1.5" stroke-miterlimit="1.5" stroke-linecap="round" stroke-linejoin="round"/>
<path d="M15 11C15 11 17 10 19 10C21 10 23 12 23 12C23 12 21 14 19 14C17 14 15 13 15 13" stroke="white" stroke-width="1.5" stroke-miterlimit="1.5" stroke-linecap="round" stroke-linejoin="round"/>
<path d="M10.5856 9.17166C10.5856 9.17166 9.87853 7.05034 8.46432 5.63613C7.05011 4.22192 4.22168 4.22192 4.22168 4.22192C4.22168 4.22192 4.22168 7.05034 5.63589 8.46456C7.05011 9.87877 9.17143 10.5859 9.17143 10.5859" stroke="white" stroke-width="1.5" stroke-miterlimit="1.5" stroke-linecap="round" stroke-linejoin="round"/>
<path d="M9.17143 13.4143C9.17143 13.4143 7.05011 14.1214 5.6359 15.5356C4.22168 16.9498 4.22168 19.7783 4.22168 19.7783C4.22168 19.7783 7.05011 19.7783 8.46432 18.3641C9.87854 16.9498 10.5856 14.8285 10.5856 14.8285" stroke="white" stroke-width="1.5" stroke-miterlimit="1.5" stroke-linecap="round" stroke-linejoin="round"/>
<path d="M14.8283 13.4143C14.8283 13.4143 16.9496 14.1214 18.3638 15.5356C19.778 16.9498 19.778 19.7783 19.778 19.7783C19.778 19.7783 16.9496 19.7783 15.5354 18.3641C14.1212 16.9498 13.4141 14.8285 13.4141 14.8285" stroke="white" stroke-width="1.5" stroke-miterlimit="1.5" stroke-linecap="round" stroke-linejoin="round"/>
<path d="M13.4141 9.17166C13.4141 9.17166 14.1212 7.05034 15.5354 5.63613C16.9496 4.22192 19.7781 4.22192 19.7781 4.22192C19.7781 4.22192 19.7781 7.05034 18.3639 8.46456C16.9496 9.87877 14.8283 10.5859 14.8283 10.5859" stroke="white" stroke-width="1.5" stroke-miterlimit="1.5" stroke-linecap="round" stroke-linejoin="round"/>
</g>
<defs>
<clipPath id="clip0_9_405">
<rect width="24" height="24" fill="white"/>
</clipPath>
</defs>
</svg>
